<svg width="706" height="448" viewBox="0 0 706 448" fill="none" xmlns="http://www.w3.org/2000/svg">
<rect width="666" height="412" rx="20" fill="#294D84"/>
<rect x="40" y="35.3735" width="666" height="412" rx="20" fill="#3A7CDF"/>
<rect x="91.03" y="122.206" width="176" height="22" rx="11" fill="#D9D9D9"/>
<rect x="283.03" y="122.206" width="82" height="22" rx="11" fill="#D9D9D9"/>
<rect x="91.03" y="254.206" width="523" height="22" rx="11" fill="#D9D9D9"/>
<rect x="91.03" y="164.206" width="82" height="22" rx="11" fill="#D9D9D9"/>
<rect x="91.03" y="296.206" width="140" height="22" rx="11" fill="#D9D9D9"/>
<rect x="439.03" y="296.206" width="216" height="22" rx="11" fill="#D9D9D9"/>
<rect x="236.03" y="206.206" width="62" height="22" rx="11" fill="#D9D9D9"/>
<rect x="203.03" y="338.206" width="227" height="22" rx="11" fill="#D9D9D9"/>
<rect x="194.03" y="164.206" width="224" height="22" rx="11" fill="#D9D9D9"/>
<rect x="248.03" y="296.206" width="170" height="22" rx="11" fill="#D9D9D9"/>
<rect x="91.03" y="206.206" width="124" height="22" rx="11" fill="#D9D9D9"/>
<rect x="91.03" y="338.206" width="95" height="22" rx="11" fill="#D9D9D9"/>
</svg>
