<?xml version="1.0" encoding="UTF-8"?>
<!DOCTYPE svg PUBLIC "-//W3C//DTD SVG 1.1//EN" "http://www.w3.org/Graphics/SVG/1.1/DTD/svg11.dtd">
<svg xmlns="http://www.w3.org/2000/svg" version="1.1" width="573px" height="348px" style="shape-rendering:geometricPrecision; text-rendering:geometricPrecision; image-rendering:optimizeQuality; fill-rule:evenodd; clip-rule:evenodd" xmlns:xlink="http://www.w3.org/1999/xlink">
<g><path style="opacity:0.759" fill="#00b8f9" d="M 557.5,-0.5 C 561.833,-0.5 566.167,-0.5 570.5,-0.5C 570.338,1.5273 570.505,3.5273 571,5.5C 571.383,4.94404 571.883,4.61071 572.5,4.5C 572.5,6.5 572.5,8.5 572.5,10.5C 394.833,10.5 217.167,10.5 39.5,10.5C 40.5027,9.69766 42.1694,8.86433 44.5,8C 52.3919,5.71496 60.3919,4.04829 68.5,3C 222.167,2.66667 375.833,2.33333 529.5,2C 538.936,0.91533 548.269,0.0819971 557.5,-0.5 Z"/></g>
<g><path style="opacity:0.987" fill="#00b2f8" d="M 39.5,10.5 C 217.167,10.5 394.833,10.5 572.5,10.5C 572.5,13.8333 572.5,17.1667 572.5,20.5C 389.833,20.5 207.167,20.5 24.5,20.5C 29.234,16.7658 34.234,13.4324 39.5,10.5 Z"/></g>
<g><path style="opacity:0.993" fill="#00abf7" d="M 24.5,20.5 C 207.167,20.5 389.833,20.5 572.5,20.5C 572.5,20.8333 572.5,21.1667 572.5,21.5C 570.692,22.9179 570.025,24.9179 570.5,27.5C 386.5,27.5 202.5,27.5 18.5,27.5C 20.5,25.1667 22.5,22.8333 24.5,20.5 Z"/></g>
<g><path style="opacity:0.991" fill="#00a5f6" d="M 18.5,27.5 C 202.5,27.5 386.5,27.5 570.5,27.5C 570.116,29.9294 569.449,32.2627 568.5,34.5C 382.833,34.5 197.167,34.5 11.5,34.5C 13.7058,32.0197 16.0392,29.6864 18.5,27.5 Z"/></g>
<g><path style="opacity:0.992" fill="#009ff5" d="M 11.5,34.5 C 197.167,34.5 382.833,34.5 568.5,34.5C 567.744,37.0033 566.744,39.3366 565.5,41.5C 379.5,41.5 193.5,41.5 7.5,41.5C 8.80053,40.1184 9.63386,38.4517 10,36.5C 10.3333,36.8333 10.6667,37.1667 11,37.5C 11.4828,36.552 11.6495,35.552 11.5,34.5 Z"/></g>
<g><path style="opacity:0.993" fill="#0098f4" d="M 7.5,41.5 C 193.5,41.5 379.5,41.5 565.5,41.5C 564.949,44.0561 563.949,46.3894 562.5,48.5C 376.5,48.5 190.5,48.5 4.5,48.5C 6.0745,46.4525 7.0745,44.1192 7.5,41.5 Z"/></g>
<g><path style="opacity:0.992" fill="#0094f4" d="M 4.5,48.5 C 190.5,48.5 376.5,48.5 562.5,48.5C 563.043,48.56 563.376,48.8933 563.5,49.5C 563.154,50.6956 562.654,50.6956 562,49.5C 561.536,50.0944 561.369,50.7611 561.5,51.5C 375.833,51.5 190.167,51.5 4.5,51.5C 4.5,50.5 4.5,49.5 4.5,48.5 Z"/></g>
<g><path style="opacity:0.992" fill="#0091f3" d="M 4.5,51.5 C 190.167,51.5 375.833,51.5 561.5,51.5C 560.449,52.2223 559.782,53.2223 559.5,54.5C 373.833,54.5 188.167,54.5 2.5,54.5C 2.42702,52.9731 3.09368,51.9731 4.5,51.5 Z"/></g>
<g><path style="opacity:0.991" fill="#008cf2" d="M 2.5,54.5 C 188.167,54.5 373.833,54.5 559.5,54.5C 558.027,57.0488 556.027,59.0488 553.5,60.5C 369.167,60.5 184.833,60.5 0.5,60.5C 1.16667,58.5 1.83333,56.5 2.5,54.5 Z"/></g>
<g><path style="opacity:0.992" fill="#0086f1" d="M 0.5,60.5 C 184.833,60.5 369.167,60.5 553.5,60.5C 552.131,63.869 549.798,66.2023 546.5,67.5C 364.167,67.5 181.833,67.5 -0.5,67.5C -0.5,66.8333 -0.5,66.1667 -0.5,65.5C 0.451145,64.0813 0.784479,62.4147 0.5,60.5 Z"/></g>
<g><path style="opacity:0.991" fill="#0080f0" d="M -0.5,67.5 C 181.833,67.5 364.167,67.5 546.5,67.5C 544.152,70.5265 541.152,72.8598 537.5,74.5C 358.167,74.5 178.833,74.5 -0.5,74.5C -0.5,72.1667 -0.5,69.8333 -0.5,67.5 Z"/></g>
<g><path style="opacity:0.984" fill="#0079ef" d="M -0.5,74.5 C 178.833,74.5 358.167,74.5 537.5,74.5C 536.531,75.3094 535.698,76.3094 535,77.5C 534.667,77.1667 534.333,76.8333 534,76.5C 529.89,79.1376 525.39,80.4709 520.5,80.5C 346.833,80.5 173.167,80.5 -0.5,80.5C -0.5,78.5 -0.5,76.5 -0.5,74.5 Z"/></g>
<g><path style="opacity:0.439" fill="#0075ee" d="M -0.5,80.5 C 173.167,80.5 346.833,80.5 520.5,80.5C 520.389,81.1174 520.056,81.6174 519.5,82C 515.049,82.1298 510.716,82.7964 506.5,84C 337.495,84.1912 168.495,84.6912 -0.5,85.5C -0.5,83.8333 -0.5,82.1667 -0.5,80.5 Z"/></g>
<g><path style="opacity:0.758" fill="#00b8f9" d="M 532.5,141.5 C 354.833,141.5 177.167,141.5 -0.5,141.5C -0.5,139.5 -0.5,137.5 -0.5,135.5C 1.25605,134.448 1.92271,132.781 1.5,130.5C 15.2353,130.735 28.902,131.569 42.5,133C 196.167,133.333 349.833,133.667 503.5,134C 511.608,135.048 519.608,136.715 527.5,139C 529.831,139.864 531.497,140.698 532.5,141.5 Z"/></g>
<g><path style="opacity:0.987" fill="#00b2f8" d="M -0.5,141.5 C 177.167,141.5 354.833,141.5 532.5,141.5C 537.766,144.432 542.766,147.766 547.5,151.5C 364.833,151.5 182.167,151.5 -0.5,151.5C -0.5,148.167 -0.5,144.833 -0.5,141.5 Z"/></g>
<g><path style="opacity:0.993" fill="#00abf7" d="M -0.5,152.5 C -0.5,152.167 -0.5,151.833 -0.5,151.5C 182.167,151.5 364.833,151.5 547.5,151.5C 549.5,153.833 551.5,156.167 553.5,158.5C 369.5,158.5 185.5,158.5 1.5,158.5C 1.97461,155.918 1.30794,153.918 -0.5,152.5 Z"/></g>
<g><path style="opacity:0.992" fill="#00a5f6" d="M 1.5,158.5 C 185.5,158.5 369.5,158.5 553.5,158.5C 556.208,160.06 557.874,162.393 558.5,165.5C 373.5,165.5 188.5,165.5 3.5,165.5C 2.55104,163.263 1.88438,160.929 1.5,158.5 Z"/></g>
<g><path style="opacity:0.992" fill="#009ff5" d="M 563.5,172.5 C 377.833,172.5 192.167,172.5 6.5,172.5C 5.25552,170.337 4.25552,168.003 3.5,165.5C 188.5,165.5 373.5,165.5 558.5,165.5C 559.117,165.389 559.617,165.056 560,164.5C 561.586,166.416 562.753,169.082 563.5,172.5 Z"/></g>
<g><path style="opacity:0.994" fill="#0098f4" d="M 6.5,172.5 C 192.167,172.5 377.833,172.5 563.5,172.5C 564.687,174.901 566.021,177.235 567.5,179.5C 381.5,179.5 195.5,179.5 9.5,179.5C 8.05118,177.389 7.05118,175.056 6.5,172.5 Z"/></g>
<g><path style="opacity:0.992" fill="#0094f4" d="M 9.5,179.5 C 195.5,179.5 381.5,179.5 567.5,179.5C 567.5,180.5 567.5,181.5 567.5,182.5C 381.833,182.5 196.167,182.5 10.5,182.5C 10.631,181.761 10.4643,181.094 10,180.5C 9.34569,181.696 8.84569,181.696 8.5,180.5C 8.62358,179.893 8.95691,179.56 9.5,179.5 Z"/></g>
<g><path style="opacity:0.992" fill="#0091f3" d="M 10.5,182.5 C 196.167,182.5 381.833,182.5 567.5,182.5C 568.906,182.973 569.573,183.973 569.5,185.5C 383.833,185.5 198.167,185.5 12.5,185.5C 12.2178,184.222 11.5511,183.222 10.5,182.5 Z"/></g>
<g><path style="opacity:0.991" fill="#008cf2" d="M 12.5,185.5 C 198.167,185.5 383.833,185.5 569.5,185.5C 570.167,187.5 570.833,189.5 571.5,191.5C 387.167,191.5 202.833,191.5 18.5,191.5C 15.9734,190.049 13.9734,188.049 12.5,185.5 Z"/></g>
<g><path style="opacity:0.992" fill="#0086f1" d="M 18.5,191.5 C 202.833,191.5 387.167,191.5 571.5,191.5C 571.216,193.415 571.549,195.081 572.5,196.5C 572.5,197.167 572.5,197.833 572.5,198.5C 390.167,198.5 207.833,198.5 25.5,198.5C 22.1667,197.167 19.8333,194.833 18.5,191.5 Z"/></g>
<g><path style="opacity:0.99" fill="#0080f0" d="M 25.5,198.5 C 207.833,198.5 390.167,198.5 572.5,198.5C 572.5,200.833 572.5,203.167 572.5,205.5C 393.167,205.5 213.833,205.5 34.5,205.5C 30.7295,204.044 27.7295,201.711 25.5,198.5 Z"/></g>
<g><path style="opacity:0.984" fill="#0079ef" d="M 34.5,205.5 C 213.833,205.5 393.167,205.5 572.5,205.5C 572.5,207.5 572.5,209.5 572.5,211.5C 398.833,211.5 225.167,211.5 51.5,211.5C 46.6099,211.471 42.1099,210.138 38,207.5C 37.6667,207.833 37.3333,208.167 37,208.5C 36.3021,207.309 35.4687,206.309 34.5,205.5 Z"/></g>
<g><path style="opacity:0.439" fill="#0075ee" d="M 51.5,211.5 C 225.167,211.5 398.833,211.5 572.5,211.5C 572.5,213.167 572.5,214.833 572.5,216.5C 403.505,215.691 234.505,215.191 65.5,215C 61.2841,213.796 56.9508,213.13 52.5,213C 51.944,212.617 51.6107,212.117 51.5,211.5 Z"/></g>
<g><path style="opacity:0.077" fill="#00bcfa" d="M 572.5,261.5 C 572.5,262.167 572.5,262.833 572.5,263.5C 403.5,263.5 234.5,263.5 65.5,263.5C 234.338,262.809 403.338,262.142 572.5,261.5 Z"/></g>
<g><path style="opacity:0.861" fill="#00b8f9" d="M 65.5,263.5 C 234.5,263.5 403.5,263.5 572.5,263.5C 572.5,266.833 572.5,270.167 572.5,273.5C 392.833,273.5 213.167,273.5 33.5,273.5C 34.7311,272.282 35.8978,270.949 37,269.5C 37.3333,269.833 37.6667,270.167 38,270.5C 42.6611,268.1 47.4944,266.267 52.5,265C 56.882,264.708 61.2153,264.208 65.5,263.5 Z"/></g>
<g><path style="opacity:0.991" fill="#00b2f8" d="M 33.5,273.5 C 213.167,273.5 392.833,273.5 572.5,273.5C 572.5,276.167 572.5,278.833 572.5,281.5C 571.662,281.842 571.328,282.508 571.5,283.5C 387.833,283.5 204.167,283.5 20.5,283.5C 23.1184,281.548 25.4518,279.215 27.5,276.5C 29.528,275.451 31.528,274.451 33.5,273.5 Z"/></g>
<g><path style="opacity:0.992" fill="#00abf7" d="M 20.5,283.5 C 204.167,283.5 387.833,283.5 571.5,283.5C 571.815,286.211 571.148,288.544 569.5,290.5C 384.5,290.5 199.5,290.5 14.5,290.5C 16.1321,287.867 18.1321,285.533 20.5,283.5 Z"/></g>
<g><path style="opacity:0.993" fill="#00a5f6" d="M 14.5,290.5 C 199.5,290.5 384.5,290.5 569.5,290.5C 569.6,293.108 568.933,295.442 567.5,297.5C 381.833,297.5 196.167,297.5 10.5,297.5C 11.2013,294.784 12.5346,292.45 14.5,290.5 Z"/></g>
<g><path style="opacity:0.993" fill="#009ff5" d="M 10.5,297.5 C 196.167,297.5 381.833,297.5 567.5,297.5C 566.237,299.696 565.237,302.03 564.5,304.5C 378.833,304.5 193.167,304.5 7.5,304.5C 7.17798,302.278 7.84464,300.444 9.5,299C 8.16016,296.821 8.4935,296.321 10.5,297.5 Z"/></g>
<g><path style="opacity:0.993" fill="#0099f4" d="M 7.5,304.5 C 193.167,304.5 378.833,304.5 564.5,304.5C 563.452,307.708 562.119,310.042 560.5,311.5C 374.833,311.5 189.167,311.5 3.5,311.5C 4.60009,308.958 5.93342,306.625 7.5,304.5 Z"/></g>
<g><path style="opacity:0.992" fill="#0094f4" d="M 3.5,311.5 C 189.167,311.5 374.833,311.5 560.5,311.5C 559.833,312.5 559.167,313.5 558.5,314.5C 373.5,314.5 188.5,314.5 3.5,314.5C 3.5,313.5 3.5,312.5 3.5,311.5 Z"/></g>
<g><path style="opacity:0.992" fill="#0090f3" d="M 3.5,314.5 C 188.5,314.5 373.5,314.5 558.5,314.5C 557.449,315.222 556.782,316.222 556.5,317.5C 371.5,317.5 186.5,317.5 1.5,317.5C 1.78219,316.222 2.44886,315.222 3.5,314.5 Z"/></g>
<g><path style="opacity:0.993" fill="#008cf2" d="M 1.5,317.5 C 186.5,317.5 371.5,317.5 556.5,317.5C 554.192,319.471 551.858,321.471 549.5,323.5C 366.833,323.5 184.167,323.5 1.5,323.5C 1.5,321.5 1.5,319.5 1.5,317.5 Z"/></g>
<g><path style="opacity:0.99" fill="#0086f1" d="M 1.5,323.5 C 184.167,323.5 366.833,323.5 549.5,323.5C 547.752,326.916 545.086,329.25 541.5,330.5C 360.833,330.5 180.167,330.5 -0.5,330.5C -0.5,328.833 -0.5,327.167 -0.5,325.5C 0.833333,325.5 1.5,324.833 1.5,323.5 Z"/></g>
<g><path style="opacity:0.986" fill="#0080f0" d="M -0.5,330.5 C 180.167,330.5 360.833,330.5 541.5,330.5C 538.889,332.813 535.889,334.647 532.5,336C 532.833,336.333 533.167,336.667 533.5,337C 531.866,337.494 530.199,337.66 528.5,337.5C 352.167,337.5 175.833,337.5 -0.5,337.5C -0.5,335.167 -0.5,332.833 -0.5,330.5 Z"/></g>
<g><path style="opacity:0.832" fill="#0079ef" d="M -0.5,337.5 C 175.833,337.5 352.167,337.5 528.5,337.5C 528.389,338.117 528.056,338.617 527.5,339C 519.665,341.419 511.665,342.919 503.5,343.5C 336.167,343.5 168.833,343.5 1.5,343.5C 1.15829,342.662 0.491622,342.328 -0.5,342.5C -0.5,340.833 -0.5,339.167 -0.5,337.5 Z"/></g>
<g><path style="opacity:0.16" fill="#0075ee" d="M 1.5,343.5 C 168.833,343.5 336.167,343.5 503.5,343.5C 350.001,344.333 196.334,344.833 42.5,345C 33.0641,346.085 23.7308,346.918 14.5,347.5C 10.1667,347.5 5.83333,347.5 1.5,347.5C 1.5,346.167 1.5,344.833 1.5,343.5 Z"/></g>
</svg>
